<svg id="Capa_1" data-name="Capa 1" xmlns="http://www.w3.org/2000/svg" viewBox="0 0 500 191.96"><path d="M183,16.32V130.13h.14V16.32Zm0,126.19V192h.14V142.51Z" transform="translate(0)"/><path d="M155.28,31.22V192h.14V31.09Zm0-27.32v8l.14-.14V3.9Z" transform="translate(0)"/><path d="M485.81,97.8Q471.58,83.37,441.72,79v-.27a75.63,75.63,0,0,0,20.36-5,42.55,42.55,0,0,0,13.17-8.25,27.79,27.79,0,0,0,7.05-10.42,31.8,31.8,0,0,0,2.18-11.62,38.4,38.4,0,0,0-3.37-16.32,31.8,31.8,0,0,0-10.38-12.51c-4.66-3.46-10.65-6.12-17.92-8a106.52,106.52,0,0,0-26.13-2.8H367.87V21.29a115.55,115.55,0,0,0-26.26-14.1A113.22,113.22,0,0,0,300.9,0,109.69,109.69,0,0,0,274,3.28a103.13,103.13,0,0,0-22.71,8.65,99.89,99.89,0,0,0-14.9-4.66q-14.18-3.39-34-3.37H155.42v7.85l-.14.14L96.65,79.53,32.38,3.9H0L10.11,15.83V192H23V30.87l66,76.87,66.22-76.52.14-.13V192H183V142.51h19.34c2.93,0,5.72,0,8.47-.18a80.66,80.66,0,0,0,4.08,7,82.53,82.53,0,0,0,17,18.72,94.63,94.63,0,0,0,22,13.26,121.8,121.8,0,0,0,26.08,8,153,153,0,0,0,29,2.66H427.7q20.1,0,33.89-4.34t22.31-12a44.21,44.21,0,0,0,12.33-17.83,62.77,62.77,0,0,0,3.77-22C500,120.15,495.3,107.47,485.81,97.8Zm-272-51.14a93.78,93.78,0,0,0-10.11,23,92.34,92.34,0,0,0-3.6,25.9A106.59,106.59,0,0,0,204,125.17c.49,1.64,1,3.23,1.51,4.79-2.26.09-4.61.17-7,.17H183V16.32h16.06a133.16,133.16,0,0,1,15.92.89,65.38,65.38,0,0,1,14.51,3.28,45.57,45.57,0,0,1,5.41,2.31c-1.87,1.46-3.64,3-5.37,4.65A92.12,92.12,0,0,0,213.83,46.66Zm16.23,48.92a97.79,97.79,0,0,1,5.33-32.86,76.88,76.88,0,0,1,15.25-26.13l.27-.26c.22.31.44.57.62.88a50.16,50.16,0,0,1,6.25,15.08A84.87,84.87,0,0,1,260,72.83q0,15.44-4.3,26.26a45,45,0,0,1-12.33,17.74,45.54,45.54,0,0,1-9.49,6.34A95.93,95.93,0,0,1,230.06,95.58ZM367.87,70.17H348V179.54H320.23c-13.88,0-26.43-1.95-37.61-5.94a78.7,78.7,0,0,1-28.38-16.94,72.41,72.41,0,0,1-14.15-18.5,81.52,81.52,0,0,0,19.2-7.54,54.65,54.65,0,0,0,15.57-12.46A57.93,57.93,0,0,0,284,103.57a59,59,0,0,0,4.31-15.26,105.57,105.57,0,0,0,1.1-14.19,123.32,123.32,0,0,0-1-14.51,62.85,62.85,0,0,0-4-15.57,57.81,57.81,0,0,0-8.83-15,48.51,48.51,0,0,0-6.74-6.79c1.91-1.06,3.86-2,5.9-2.93q14.16-6.25,32-6.38a81.84,81.84,0,0,1,17.07,1.77,94.52,94.52,0,0,1,16.37,4.92,96.07,96.07,0,0,1,15,7.46,104,104,0,0,1,12.77,9.18Zm27.68-53.85h19a100.07,100.07,0,0,1,17.08,1.33,38.56,38.56,0,0,1,12.9,4.48,21.86,21.86,0,0,1,8.16,8.43,26.73,26.73,0,0,1,2.84,13,28.66,28.66,0,0,1-3.15,14,25,25,0,0,1-8.69,9.18,39.54,39.54,0,0,1-12.95,5.05,77,77,0,0,1-16.19,1.6h-19Zm70.39,137.19a38.12,38.12,0,0,1-9.36,14.19,40.26,40.26,0,0,1-15.22,8.83,65.52,65.52,0,0,1-20.89,3.06H395.55V85.74h8.11a115.58,115.58,0,0,1,27.06,2.92,60.58,60.58,0,0,1,20.67,8.83,40.43,40.43,0,0,1,13.17,15.26q4.59,9.31,4.61,21.95A51.4,51.4,0,0,1,465.94,153.51Z" transform="translate(0)"/></svg>